<svg width="69" height="69" viewBox="0 0 69 69" fill="none" xmlns="http://www.w3.org/2000/svg">
<path d="M49.93 0.5C49.8276 0.500897 49.7262 0.520485 49.6308 0.5578C49.6138 0.56375 49.6003 0.5765 49.5832 0.5833C49.5053 0.618045 49.433 0.664479 49.369 0.721C49.3597 0.7295 49.3478 0.73205 49.3384 0.74055C49.2951 0.7822 44.9184 4.90725 34.5 6.88775C24.0807 4.90725 19.7049 0.7822 19.6615 0.74055C19.653 0.73205 19.6403 0.72865 19.6309 0.721C19.5703 0.668256 19.5025 0.624462 19.4295 0.59095C19.4074 0.58075 19.3887 0.5646 19.3666 0.5561C19.2716 0.519605 19.1708 0.500599 19.0691 0.5C18.7206 0.5 10.4144 0.573099 0.875694 6.97955C0.688584 7.10534 0.559107 7.30031 0.515749 7.52157C0.472391 7.74282 0.518702 7.97224 0.644494 8.15935C0.770286 8.34646 0.965255 8.47594 1.18651 8.51929C1.40777 8.56265 1.63718 8.51634 1.82429 8.39055C8.39224 3.97905 14.4315 2.71255 17.3062 2.3479L7.00504 15.9853C6.89643 16.1292 6.83641 16.304 6.83366 16.4843C6.83091 16.6646 6.88557 16.8411 6.98974 16.9883L13.3919 26.028L7.79214 31.9016C7.6539 32.0466 7.57135 32.2358 7.55906 32.4358C7.54678 32.6358 7.60555 32.8338 7.72499 32.9946L33.8174 68.1566C33.8965 68.2631 33.9994 68.3497 34.118 68.4093C34.2365 68.469 34.3673 68.5 34.5 68.5C34.6327 68.5 34.7635 68.469 34.882 68.4093C35.0006 68.3497 35.1035 68.2631 35.1825 68.1566L61.275 32.9946C61.3943 32.8337 61.453 32.6357 61.4405 32.4357C61.4281 32.2357 61.3454 32.0465 61.207 31.9016L55.608 26.028L62.0102 16.9891C62.1143 16.8419 62.1689 16.6654 62.1661 16.4852C62.1634 16.3049 62.1034 16.1301 61.9949 15.9861L51.6938 2.34705C54.5685 2.7117 60.6077 3.97905 67.1757 8.3897C67.3628 8.5108 67.5901 8.55354 67.8084 8.50871C68.0268 8.46388 68.2188 8.33506 68.3431 8.15002C68.4674 7.96498 68.514 7.73851 68.4729 7.51942C68.4318 7.30033 68.3063 7.10614 68.1234 6.9787C58.5864 0.5731 50.2785 0.5 49.93 0.5ZM48.5675 3.44695L46.2045 13.5696L36.846 8.1347C42.739 6.7747 46.5079 4.7976 48.5675 3.44695ZM45.7999 15.3002L42.7033 28.5602L38.376 17.4804C39.3535 16.9058 41.1325 15.6461 42.5843 13.4336L45.7999 15.3002ZM32.154 8.1347L22.7955 13.5696L20.4325 3.44695C22.492 4.7976 26.2609 6.7747 32.154 8.1347ZM26.4156 13.4336C27.8674 15.6461 29.6456 16.9058 30.624 17.4796L26.2975 28.5594L23.2001 15.3002L26.4156 13.4336ZM9.51594 32.5569L15.1055 26.6945C15.2415 26.5517 15.3237 26.3662 15.338 26.1696C15.3522 25.973 15.2977 25.7775 15.1837 25.6166L8.73649 16.5131L18.667 3.3662L32.8178 63.9567L9.51594 32.5569ZM34.5 63.6856L26.98 31.4842L32.4829 17.3946C32.5067 17.3334 32.5067 17.2705 32.5152 17.2076C32.522 17.1659 32.5373 17.1251 32.5373 17.0835C32.5373 17.0155 32.5178 16.9509 32.5008 16.8846C32.4914 16.8446 32.4897 16.803 32.4744 16.7656C32.4489 16.7052 32.409 16.6551 32.3707 16.6015C32.3452 16.565 32.3274 16.525 32.2959 16.4936C32.2526 16.4485 32.1948 16.4188 32.1404 16.3831C32.103 16.3593 32.0741 16.3261 32.0324 16.3066C32.0069 16.2956 29.6652 15.2356 27.887 12.5785L34.5 8.7382L41.113 12.5785C39.3399 15.2262 37.0075 16.2887 36.9675 16.3066C36.9199 16.3279 36.8868 16.3644 36.8451 16.3924C36.7975 16.4247 36.7448 16.4502 36.7057 16.491C36.6666 16.5301 36.6437 16.5786 36.6131 16.6245C36.5833 16.6695 36.5476 16.7103 36.5264 16.7605C36.506 16.8098 36.5026 16.8633 36.4924 16.916C36.4805 16.9704 36.4626 17.0223 36.4618 17.0792C36.4618 17.1336 36.4796 17.1872 36.4907 17.2416C36.4992 17.2926 36.4975 17.3436 36.517 17.3946L42.0199 31.4842L34.5 63.6856ZM60.2635 16.514L53.8162 25.6166C53.7023 25.7775 53.6478 25.973 53.662 26.1696C53.6763 26.3662 53.7585 26.5517 53.8944 26.6945L59.484 32.5569L36.1821 63.9559L50.3329 3.3662L60.2635 16.514Z" fill="#BB3024"/>
</svg>
