<svg width="178" height="56" viewBox="0 0 178 56" fill="none" xmlns="http://www.w3.org/2000/svg">
<g clip-path="url(#clip0_1_105)">
<path d="M116.793 8.67803C116.855 8.80513 116.935 8.94446 117.035 9.09665C117.134 9.24902 117.258 9.38207 117.406 9.4963C117.555 9.61037 117.716 9.66748 117.889 9.66748H117.934C118.243 9.66748 118.531 9.48343 118.646 9.18943C118.668 9.13396 118.688 9.07767 118.707 9.02039C118.781 8.79209 118.842 8.61497 118.893 8.48753C118.917 8.43702 118.985 8.37346 119.097 8.29736C119.208 8.2211 119.325 8.13245 119.45 8.03093C119.573 7.92991 119.685 7.82162 119.784 7.70722L119.787 7.70392C119.937 7.53026 119.872 7.25822 119.661 7.17452C119.476 7.10123 119.276 7.01869 119.06 6.92708C118.7 6.77488 118.422 6.69861 118.224 6.69861C118.075 6.69861 117.901 6.74979 117.704 6.85081C117.505 6.95266 117.326 7.07911 117.165 7.23147C117.003 7.38384 116.873 7.56823 116.775 7.78349C116.675 7.9994 116.65 8.2211 116.7 8.4494C116.7 8.47515 116.731 8.55141 116.793 8.67803Z" fill="#353535"/>
<path d="M177.054 6.92708C176.694 6.77488 176.415 6.69861 176.216 6.69861C176.068 6.69861 175.895 6.74979 175.697 6.85081C175.498 6.95266 175.319 7.07911 175.158 7.23147C174.997 7.38384 174.866 7.56823 174.767 7.78349C174.669 7.9994 174.643 8.2211 174.693 8.4494C174.693 8.47515 174.724 8.55141 174.787 8.67803C174.848 8.80513 174.929 8.94446 175.029 9.09665C175.127 9.24869 175.251 9.38207 175.4 9.4963C175.548 9.61037 175.71 9.66748 175.882 9.66748H176.402C176.526 9.46461 176.626 9.24869 176.7 9.02039C176.774 8.79209 176.836 8.61497 176.886 8.48753C176.91 8.43702 176.979 8.37346 177.091 8.29736C177.202 8.2211 177.318 8.13245 177.442 8.03093C177.567 7.92991 177.678 7.82162 177.778 7.70722C177.876 7.59332 177.951 7.45994 178.001 7.30774C177.728 7.20655 177.412 7.07911 177.054 6.92708Z" fill="#353535"/>
<path d="M120.918 23.2561C120.336 23.6879 119.846 24.0049 119.45 24.2076C119.252 24.3093 119.01 24.436 118.726 24.5884C118.441 24.7406 118.137 24.906 117.816 25.0831C117.493 25.2609 117.178 25.4387 116.868 25.616C116.558 25.7938 116.28 25.946 116.032 26.0728C115.759 26.2251 115.419 26.4534 115.011 26.7578C114.602 27.0622 114.187 27.3419 113.766 27.5952C113.345 27.8493 112.936 28.033 112.54 28.1469C112.369 28.1961 112.212 28.2138 112.069 28.1994C111.762 28.1686 111.562 27.8486 111.654 27.5467C111.764 27.185 111.985 26.7763 112.317 26.32C112.787 25.6731 113.394 24.9945 114.137 24.2838C114.881 23.5735 115.71 22.8754 116.627 22.1904C117.543 21.5051 118.46 20.8904 119.376 20.3442C120.292 19.7989 121.165 19.3613 121.995 19.031C122.825 18.7015 123.512 18.5363 124.057 18.5363C124.35 18.5117 124.619 18.4986 124.864 18.4981C124.871 18.4986 124.878 18.4991 124.886 18.4996C125.08 18.5252 125.262 18.5627 125.432 18.6125C125.574 18.6545 125.658 18.7391 125.684 18.8663C125.694 18.9161 125.68 18.9679 125.646 19.0051C125.306 19.375 124.882 19.8092 124.373 20.3064C123.84 20.8265 123.277 21.3404 122.683 21.8478C122.088 22.3556 121.5 22.8249 120.918 23.2561ZM88.159 23.3107C87.7448 23.107 87.5554 22.7906 87.5914 22.3615C87.6285 21.918 87.8014 21.4233 88.1114 20.877C88.4207 20.3318 88.836 19.7676 89.356 19.1835C89.8763 18.5998 90.4085 18.0859 90.9537 17.6417C91.4982 17.1982 92.0247 16.8424 92.5327 16.576C93.0401 16.3096 93.4301 16.2145 93.7029 16.2906C94.0001 16.2657 94.1731 16.3226 94.2231 16.4619C94.2725 16.6018 94.2725 16.7729 94.2231 16.9758C94.1731 17.179 94.0931 17.3819 93.9817 17.5846C93.8702 17.7882 93.7775 17.9402 93.7029 18.0415C93.5787 18.2449 93.3809 18.5495 93.1086 18.9549C92.8359 19.3613 92.5327 19.7799 92.1983 20.2111C91.8638 20.6428 91.5352 21.0548 91.2138 21.448C90.8914 21.8419 90.6315 22.1273 90.4334 22.3044C88.9352 23.5833 88.159 23.3107 88.159 23.3107ZM83.8388 32.0868C83.4795 32.5179 83.0214 33.0191 82.4642 33.5901C81.9069 34.1609 81.3253 34.7443 80.718 35.3409C80.1112 35.9368 79.6591 36.4639 79.3619 36.9207C78.0242 38.9247 76.4889 40.9233 74.7548 42.9155C73.0214 44.9073 71.2381 46.7532 69.405 48.4534C68.8846 48.9353 68.4331 49.3731 68.0487 49.7666C67.6649 50.1598 67.3056 50.5278 66.9712 50.8705C66.637 51.2132 66.2966 51.5427 65.9496 51.8601C65.6132 52.1679 65.2182 52.4697 64.765 52.7657C64.7387 52.783 64.7056 52.7914 64.6746 52.7873C64.4023 52.7518 64.2021 52.6204 64.0733 52.3928C63.9373 52.1514 63.8691 51.866 63.8691 51.5367C63.8691 51.2066 63.9188 50.8829 64.0175 50.5659C64.1159 50.2513 64.2263 49.9933 64.3486 49.7914C64.3508 49.7874 64.3533 49.784 64.3558 49.7802C64.8994 49.0211 65.3997 48.2996 65.8566 47.6162C66.3153 46.9309 66.7919 46.2585 67.2871 45.599C67.7829 44.9387 68.3153 44.2724 68.8846 43.6006C69.4547 42.9279 70.1108 42.2239 70.8536 41.4881C72.1169 40.2446 73.4173 39.0267 74.7548 37.834C76.266 36.5144 77.8079 35.2963 79.3805 34.1801C80.9177 33.0886 82.46 32.1313 84.0088 31.307C84.0921 31.2624 84.1994 31.3185 84.2018 31.4148C84.2052 31.5673 84.0842 31.7911 83.8388 32.0868ZM168.005 24.1696C167.881 24.1445 167.615 24.2589 167.206 24.5121C167.022 24.626 166.814 24.7723 166.584 24.9476C166.584 24.9476 161.772 28.014 159.437 28.1661H159.312C159.187 28.1661 159.02 28.1469 158.81 28.109C158.657 28.0814 158.487 28.0101 158.301 27.8949C158.219 27.844 158.154 27.7242 158.168 27.6274C158.375 26.2425 161.682 23.8755 161.682 23.8755C161.687 23.8688 161.693 23.8627 161.698 23.8561C161.75 23.8109 161.963 23.6361 162.339 23.3322C162.749 23.0027 163.181 22.6156 163.639 22.1714C164.097 21.7275 164.507 21.2709 164.865 20.8011C165.225 20.3318 165.367 19.9577 165.293 19.6783C165.269 19.5516 165.188 19.4249 165.052 19.2974C164.915 19.1708 164.76 19.0632 164.588 18.9739C164.414 18.8852 164.239 18.8093 164.067 18.7456C163.894 18.6827 163.757 18.6507 163.659 18.6507C163.237 18.6507 162.828 18.8218 162.432 19.1644L160.315 21.0485L155.965 24.2231C148.415 28.6285 148.166 26.9465 148.166 26.9465C148.116 26.6662 148.153 26.3349 148.277 25.9531C148.401 25.5713 148.549 25.1823 148.723 24.7875L149.615 22.6476C149.862 22.2278 150.091 21.8199 150.302 21.4251C150.512 21.0302 150.692 20.6671 150.84 20.3359C150.989 20.0046 151.063 19.7502 151.063 19.5718C151.063 19.3684 151.045 19.2215 151.008 19.1322C150.971 19.043 150.927 18.9735 150.878 18.9224C150.828 18.8712 150.794 18.8143 150.748 18.7885C150.297 18.5376 148.797 18.8836 148.797 18.8836C148.475 18.9348 148.24 18.9795 148.091 19.0173C147.943 19.0554 147.794 19.1132 147.645 19.1895C147.497 19.2661 147.323 19.3808 147.125 19.5336C146.927 19.6863 146.629 19.9029 146.233 20.1832C146.06 20.3103 145.862 20.4376 145.639 20.565C145.416 20.6921 145.199 20.8069 144.989 20.9087C144.778 21.0111 144.586 21.1 144.413 21.1763L144.408 21.1785C144.256 21.2456 144.109 21.0736 144.192 20.9269C144.245 20.8335 144.307 20.7511 144.376 20.6798C144.525 20.5269 144.667 20.3806 144.803 20.24C144.939 20.1004 145.063 19.9607 145.175 19.8204C145.286 19.6801 145.342 19.4955 145.342 19.2661C145.342 19.0627 145.261 18.8651 145.1 18.6736C144.939 18.4826 144.748 18.3108 144.525 18.1581C144.301 18.0052 144.066 17.8839 143.819 17.7944C143.571 17.7054 143.348 17.6607 143.15 17.6607C142.951 17.6607 142.741 17.6865 142.518 17.737C142.295 17.7882 142.072 17.8453 141.849 17.9082C141.627 17.972 141.428 18.0415 141.255 18.1176L139.49 18.993C136.992 20.4759 126.985 26.6149 124.555 27.2324C122.455 27.7661 122.18 27.1304 122.24 26.6304C122.27 26.3734 122.399 26.1381 122.582 25.9595C123.285 25.2738 123.878 24.7041 124.373 24.2647C124.931 23.77 125.432 23.2883 125.878 22.8183C126.324 22.3492 126.751 21.8227 127.16 21.2387C127.489 20.7691 127.862 20.1675 128.279 19.4346C128.448 19.1388 128.326 18.758 128.021 18.6176C127.351 18.3095 126.817 18.0605 126.417 17.8702C125.909 17.6293 125.481 17.4514 125.135 17.3373C124.788 17.2233 124.435 17.1536 124.076 17.1278C123.717 17.1029 123.203 17.0899 122.534 17.0899C121.741 17.0899 120.905 17.185 120.026 17.3753C119.147 17.5658 118.261 17.8512 117.37 18.2317C116.478 18.6125 115.592 19.0881 114.713 19.6593C113.834 20.2301 113.01 20.8836 112.243 21.6194C111.97 21.899 111.592 22.2731 111.109 22.7424C110.638 23.2006 110.179 23.697 109.732 24.2272C109.595 24.2834 109.42 24.3774 109.202 24.5121C109.019 24.626 108.81 24.7723 108.58 24.9476H108.579C108.579 24.9476 103.768 28.014 101.432 28.1661H101.307C101.183 28.1661 101.016 28.1469 100.806 28.109C100.652 28.0814 100.482 28.0101 100.296 27.8949C100.214 27.844 100.149 27.7242 100.164 27.6274C100.371 26.2425 103.677 23.8755 103.677 23.8755C103.683 23.8688 103.688 23.8627 103.694 23.8561C103.745 23.8109 103.959 23.6361 104.335 23.3322C104.744 23.0027 105.177 22.6156 105.635 22.1714C106.093 21.7275 106.502 21.2709 106.862 20.8011C107.22 20.3318 107.363 19.9577 107.289 19.6783C107.264 19.5516 107.183 19.4249 107.048 19.2974C106.911 19.1708 106.756 19.0632 106.583 18.9739C106.409 18.8852 106.236 18.8093 106.063 18.7456C105.889 18.6827 105.753 18.6507 105.654 18.6507C105.233 18.6507 104.824 18.8218 104.428 19.1644L103.99 19.5538L103.99 19.554L102.31 21.0485L101.593 21.7417L99.9576 23.2336C99.5923 23.5522 99.2432 23.8707 98.9073 24.1891C98.907 24.1891 98.9066 24.1886 98.9062 24.1888C98.8319 24.1888 96.8608 25.3182 96.5637 25.4828C96.2665 25.6482 95.9138 25.8384 95.5051 26.0538C95.0963 26.2695 94.6624 26.4916 94.2045 26.7199C93.746 26.9483 93.3315 27.1385 92.96 27.2908C91.3314 27.8932 90.5079 27.5191 90.5079 27.5191C90.2106 27.4941 90.1176 27.361 90.229 27.1195C90.3385 26.8831 90.5132 26.6284 90.754 26.3549L91.5852 25.2925C91.9811 24.6709 92.4333 23.9667 92.9414 23.18C93.4487 22.3937 93.969 21.6385 94.5017 20.9152C94.8535 20.4373 95.1758 20.0566 95.4682 19.7725C95.8255 19.4255 96.143 19.0379 96.4304 18.6284C96.6324 18.3405 96.8378 18.0559 97.0469 17.7751C97.4425 17.2422 97.8021 16.7094 98.1241 16.1765C98.4458 15.6435 98.6953 15.1181 98.9415 14.6351C99.5147 13.5112 99.1273 13.0551 99.1273 13.0551C99.0773 12.9792 99.0346 12.9097 98.9972 12.846C98.9602 12.7831 98.8981 12.7317 98.8116 12.6938C98.73 12.658 98.6217 12.6725 98.4862 12.7372C98.4707 12.7494 98.4547 12.7619 98.4392 12.774C98.1485 13.1218 97.8637 13.4691 97.5854 13.8166C97.3003 14.172 97.0404 14.4893 96.8053 14.7681C96.5695 15.0476 96.3529 15.282 96.155 15.4721C95.9565 15.6626 95.8079 15.7577 95.7094 15.7577C95.5358 15.7577 95.3807 15.7198 95.2447 15.6435C95.1085 15.5674 94.9598 15.4855 94.7989 15.3962C94.6377 15.3076 94.4582 15.2315 94.2604 15.1679C94.0618 15.1047 93.8017 15.0857 93.48 15.1106C93.0342 15.1362 92.5076 15.2439 91.9011 15.4343C91.294 15.6245 90.6685 15.8909 90.0247 16.2335C89.3803 16.576 88.7488 16.9823 88.1301 17.4514C87.5105 17.9215 86.9596 18.441 86.4767 19.012C85.9936 19.583 85.6095 20.1987 85.3249 20.858C85.0399 21.5183 84.922 22.216 84.9719 22.9517C84.9965 23.3832 85.1327 23.732 85.3807 23.9984C85.6279 24.2647 85.9063 24.474 86.2166 24.6262C86.5259 24.7786 86.8481 24.8803 87.1825 24.9308C87.1825 24.9308 88.1601 25.2806 89.8566 23.5649C89.9173 23.5034 90.0255 23.5458 90.0544 23.628C90.0599 23.6435 90.0652 23.66 90.0702 23.6775C90.1473 23.9458 90.0654 24.2345 89.8781 24.438C89.7387 24.5892 89.5584 24.7979 89.3374 25.0642C89.0523 25.4067 88.7488 25.7623 88.4271 26.1299C88.1051 26.4978 87.8077 26.8405 87.5356 27.1575C87.5328 27.1608 87.5302 27.1637 87.5273 27.167C87.1409 27.5117 86.7595 27.8516 86.3731 28.1965L83.7884 29.9514C83.7849 29.9542 83.7813 29.9568 83.7778 29.9596C83.4825 30.2112 83.1992 30.438 82.9285 30.6402C82.6558 30.8431 82.4328 30.9951 82.2597 31.0968C81.2444 31.7059 80.1855 32.3781 79.0833 33.1144C77.9812 33.8499 76.8724 34.6236 75.7579 35.4361C74.6434 36.248 73.5416 37.0978 72.4514 37.9864C71.3617 38.8743 70.3335 39.7879 69.3677 40.7268C68.253 41.7925 67.0705 42.9594 65.8195 44.2285C64.569 45.4973 63.4544 46.7596 62.4756 48.016C61.4977 49.2719 60.7667 50.4768 60.2836 51.6317C59.8056 52.7748 59.7825 53.7376 60.215 54.5205C60.2262 54.534 60.2375 54.5475 60.2486 54.5609C60.6613 54.9097 61.0195 55.2465 61.3241 55.5713C61.634 55.9006 61.9743 56.0404 62.3457 55.99C62.8413 55.9137 63.3617 55.7235 63.906 55.419C64.4513 55.1144 64.9778 54.753 65.4852 54.3342C65.9933 53.9156 66.4825 53.4838 66.9528 53.0401C67.4234 52.5959 67.8322 52.2087 68.1785 51.8791C70.3586 49.7982 72.3464 47.7238 74.1418 45.6559C75.9381 43.5874 77.6528 41.5261 79.2875 39.4706C80.328 38.1511 81.3622 36.9207 82.3898 35.7787C83.4165 34.6377 84.4502 33.4587 85.4898 32.2416C85.4914 32.2396 85.4931 32.2378 85.4949 32.236C85.4949 32.236 87.0549 30.5587 90.3221 29.2318C90.7543 29.0562 91.2323 28.8643 91.7896 28.7371C92.3469 28.6105 92.9414 28.4515 93.5731 28.2613C94.2045 28.071 94.8605 27.8176 95.5419 27.5L96.8897 26.8381C96.7474 27.2722 96.7206 27.74 96.8116 28.2423C96.861 28.5218 96.9846 28.7562 97.1832 28.9464C97.3812 29.1367 97.6041 29.2889 97.852 29.4033C98.0993 29.5172 98.3536 29.5994 98.6135 29.6506C98.8736 29.7011 99.1022 29.7269 99.3009 29.7269C99.5481 29.7269 99.8455 29.6821 100.193 29.5935C100.539 29.5048 100.899 29.3842 101.27 29.2318C101.27 29.2318 106.17 26.982 108.832 25.5089C108.733 25.6457 108.623 25.7819 108.546 25.9206C108.236 26.4788 108.106 26.9737 108.156 27.4049C108.255 28.1918 108.589 28.7562 109.159 29.0988C109.729 29.4413 110.36 29.6125 111.054 29.6125C111.45 29.6125 111.908 29.5172 112.428 29.327C112.949 29.1367 113.481 28.8893 114.026 28.5849C114.57 28.2803 115.122 27.9634 115.679 27.6332C116.237 27.3039 116.75 26.9863 117.221 26.6817C117.691 26.3773 118.1 26.1299 118.447 25.9395C118.794 25.7491 119.042 25.6541 119.19 25.6541C119.19 25.6541 119.701 25.4955 119.785 25.8443C119.815 26.0655 119.832 26.2837 119.834 26.4996C119.839 26.9883 119.947 27.4756 120.203 27.8876C120.406 28.2131 120.71 28.5294 121.159 28.6801C121.454 28.7788 121.748 28.8323 122.032 28.8703C122.317 28.9086 122.521 28.9276 122.646 28.9276C123.289 28.9276 123.97 28.7818 124.689 28.4898L127.768 26.9503C127.773 26.9477 128.521 26.5422 128.521 26.5422C128.702 26.4503 128.862 26.3722 129.069 26.2629C129.836 25.8573 130.889 25.2484 132.227 24.436L133.936 23.4083L139.509 20.2874C139.905 20.1604 140.171 20.1349 140.308 20.2111C140.443 20.2874 140.518 20.4081 140.53 20.5726C140.543 20.738 140.561 20.936 140.456 21.1053C139.979 21.8792 138.833 22.8064 138.752 22.8718C138.749 22.8744 138.746 22.8772 138.743 22.8799C138.236 23.3862 137.705 23.8921 137.15 24.3979C136.592 24.906 135.985 25.4067 135.329 25.9016C134.751 26.3367 134.102 26.7276 133.381 27.0746C133.085 27.2174 132.838 27.4511 132.675 27.7422L132.673 27.7474C132.598 27.8996 132.548 28.071 132.524 28.2613C132.51 28.3701 132.528 28.4809 132.578 28.5938C132.653 28.7607 132.794 28.8873 132.956 28.9645C133.286 29.1219 133.973 29.3678 134.79 29.194C134.936 29.1631 135.168 29.0994 135.478 28.9102C135.787 28.7211 136.165 28.488 136.611 28.2102C137.057 27.933 137.552 27.6236 138.097 27.2831C138.642 26.9429 139.211 26.6211 139.806 26.3182C140.128 26.1418 140.543 25.8514 141.051 25.4478C141.558 25.0443 142.091 24.6406 142.648 24.2368C143.205 23.8335 143.744 23.4803 144.264 23.1775C144.785 22.8748 145.23 22.7363 145.602 22.7612C145.874 22.7869 145.985 23.039 145.936 23.5184C145.886 23.9978 145.794 24.5394 145.658 25.1449C145.521 25.7504 145.398 26.3367 145.286 26.9041C145.286 26.9041 145.1 28.1083 145.658 28.6068C145.803 28.7362 145.942 28.8531 146.104 28.9287C146.264 29.0042 146.413 29.0482 146.549 29.0608C146.685 29.0737 146.791 29.0798 146.865 29.0798C146.964 29.0798 147.187 29.0355 147.534 28.9477C147.88 28.8596 148.283 28.7458 148.741 28.6075C149.199 28.4688 149.707 28.2988 150.265 28.0966C150.822 27.895 151.373 27.6808 151.918 27.4536C152.339 27.2778 152.685 27.1134 152.958 26.9624C153.23 26.8113 153.478 26.673 153.701 26.5467C153.924 26.4206 154.147 26.2946 154.37 26.1683C154.593 26.0422 154.853 25.9039 155.15 25.7524C155.423 25.631 155.682 25.4461 155.943 25.2708C155.634 25.6328 155.309 25.9909 155.095 26.3773C154.785 26.9354 154.692 27.5573 154.816 28.2423C154.865 28.5218 154.989 28.7562 155.188 28.9464C155.385 29.1367 155.608 29.2889 155.856 29.4033C156.104 29.5172 156.358 29.5994 156.618 29.6506C156.878 29.7011 157.107 29.7269 157.305 29.7269C157.553 29.7269 157.85 29.6821 158.197 29.5935C158.544 29.5048 158.903 29.3842 159.274 29.2318C159.274 29.2318 166.559 25.8866 168.191 24.6833C168.341 24.5734 168.378 24.4237 168.378 24.3218C168.378 24.2206 168.252 24.1696 168.005 24.1696Z" fill="#353535"/>
<path d="M127.774 26.9477L127.768 26.9501L127.768 26.9504L127.774 26.9477Z" fill="#353535"/>
<path d="M69.962 27.3827C69.9333 27.6571 69.9449 27.943 69.999 28.2414C70.0483 28.5207 70.1719 28.7551 70.3705 28.9453C70.5685 29.136 70.7915 29.288 71.0393 29.4022C71.2866 29.5163 71.5409 29.5983 71.8008 29.6497C72.0611 29.7002 72.2897 29.7259 72.4883 29.7259C72.7356 29.7259 73.0328 29.681 73.38 29.5926C73.7266 29.5039 74.0859 29.3832 74.4573 29.2309C74.4573 29.2309 81.7432 25.8855 83.3742 24.6824C83.5231 24.5725 83.5599 24.4226 83.5599 24.3211C83.5599 24.2197 83.4357 24.1685 83.1885 24.1685C83.0643 24.1434 82.7984 24.2578 82.3897 24.5111C82.2063 24.625 81.9978 24.7714 81.767 24.9465H81.7663C81.7663 24.9465 76.9555 28.013 74.6198 28.1652H74.4946C74.3703 28.1652 74.2032 28.1462 73.9931 28.108C73.8395 28.0803 73.6698 28.009 73.4836 27.8938C73.4018 27.8433 73.3368 27.7233 73.3511 27.6265C73.5578 26.2415 76.8646 23.8745 76.8646 23.8745C76.8706 23.8679 76.8759 23.8618 76.8817 23.8552C76.9324 23.8098 77.1462 23.6352 77.5226 23.3313C77.9311 23.0018 78.3643 22.6145 78.8228 22.1705C79.2809 21.7266 79.6895 21.27 80.0489 20.8002C80.4078 20.3309 80.5506 19.9568 80.4762 19.6773C80.4512 19.5506 80.3706 19.424 80.2347 19.2965C80.0982 19.1699 79.9432 19.0623 79.7702 18.973C79.5966 18.8843 79.423 18.8084 79.2502 18.7447C79.0765 18.6818 78.9401 18.6496 78.8414 18.6496C78.42 18.6496 78.0113 18.8208 77.6154 19.1635L77.1776 19.5529L75.4976 21.0476L74.78 21.7406L73.1449 23.2327L72.0312 24.2694C71.2216 25.0507 69.2726 26.7959 68.9044 27.0435C68.4709 27.3355 68.013 27.6592 67.5298 28.0143C67.2457 28.2234 66.9832 28.4223 66.7376 28.6138C65.9071 29.1777 64.1339 30.186 63.5359 30.5262C62.8671 30.9069 62.2106 31.2876 61.5669 31.668C60.5759 32.226 59.6348 32.715 58.7433 33.1336C57.8515 33.5522 56.9719 33.7617 56.1052 33.7617C55.8325 33.7617 55.6529 33.7297 55.5666 33.6664C55.4793 33.6029 55.4264 33.5194 55.3993 33.4192C55.2882 33.0083 55.5507 32.6984 55.5507 32.6984L58.3715 29.4036C58.6897 29.0401 59.0203 28.7068 59.363 28.405C59.3704 28.3976 59.3778 28.3902 59.3852 28.3827C60.0746 27.6014 60.7587 26.9141 61.4368 26.3203C62.1178 25.7244 62.7987 25.1596 63.4802 24.6265C64.1612 24.0936 64.8422 23.5607 65.5236 23.0279C66.2046 22.495 66.904 21.8862 67.6228 21.2008C68.836 20.0342 70.0806 18.8477 71.3567 17.642C72.632 16.4371 73.9018 15.2763 75.1649 14.1592C75.5363 13.8299 75.8764 13.5189 76.1864 13.2269C76.496 12.9354 76.8054 12.6433 77.1154 12.3513C77.425 12.0598 77.7407 11.7681 78.0628 11.4759C78.3845 11.1844 78.7438 10.886 79.1402 10.5814C79.4867 10.3024 79.9512 10.1246 80.5335 10.0485C81.1151 9.97243 81.741 9.93429 82.4097 9.93429C82.8055 9.93429 83.2887 9.92192 83.8586 9.89633C84.4281 9.87124 85.1461 9.84581 86.0136 9.82006C86.8803 9.7953 87.9392 9.7887 89.1902 9.80124C90.4408 9.81429 91.9454 9.87123 93.7043 9.97243C94.0259 10.0485 94.3174 10.0295 94.5775 9.91531C94.8376 9.80124 95.0419 9.66192 95.1903 9.49668C95.339 9.33193 95.4134 9.1733 95.4134 9.02077C95.4134 8.86857 95.3019 8.78009 95.079 8.75434C94.856 8.78009 94.5031 8.81822 94.0201 8.86857C93.537 8.91991 92.9919 8.97686 92.3852 9.03975C92.1898 9.06039 91.9759 9.07112 91.7754 9.08878C91.7839 9.06517 91.7989 9.04487 91.8067 9.02077C91.8781 8.80106 91.938 8.62872 91.9866 8.5026C91.9909 8.49302 91.9948 8.4851 91.9991 8.47553C92.0282 8.42716 92.0943 8.36773 92.1968 8.29774C92.3081 8.22148 92.4256 8.13283 92.5496 8.03131C92.6734 7.93029 92.7849 7.822 92.8841 7.7076C92.9135 7.67376 92.9406 7.63827 92.9654 7.60113C93.0596 7.46065 92.994 7.26652 92.8386 7.20561C92.6326 7.12489 92.4062 7.03195 92.1597 6.92746C91.8004 6.77526 91.5216 6.69899 91.3238 6.69899C91.175 6.69899 91.0016 6.75017 90.8036 6.85119C90.605 6.95304 90.4256 7.07949 90.2647 7.23185C90.1034 7.38422 89.9734 7.56861 89.8746 7.78386C89.7756 7.99978 89.7505 8.22148 89.8004 8.44978C89.8004 8.47553 89.8312 8.55179 89.8933 8.67841C89.9548 8.80551 90.0355 8.94483 90.1349 9.09703C90.1602 9.13649 90.202 9.16356 90.2307 9.2002C89.6725 9.2286 89.1265 9.2494 88.6146 9.2494C87.9948 9.2494 87.3884 9.24329 86.7937 9.23042C86.1993 9.2177 85.648 9.19872 85.1406 9.1733C84.6325 9.14821 84.1988 9.12906 83.84 9.11602C83.4807 9.10364 83.2393 9.09703 83.1158 9.09703C82.5704 9.09703 82.1742 9.03381 81.9267 8.9067C81.6789 8.78009 81.6295 8.52604 81.7783 8.14554C81.9267 7.76488 82.199 7.39066 82.5956 7.0227C82.9915 6.65492 83.4002 6.29357 83.8216 5.93783C84.2426 5.58292 84.6204 5.25261 84.9547 4.94804C85.289 4.64365 85.4563 4.35229 85.4563 4.07282C85.4563 3.79384 85.4313 3.59691 85.3818 3.48284C85.3323 3.36844 85.2705 3.27996 85.1962 3.21641C85.1219 3.15318 85.0349 3.10217 84.9363 3.06404C84.8865 3.04506 84.8368 3.01815 84.7872 2.98316C84.6901 2.91498 84.5643 2.90425 84.467 2.97194C83.8831 3.37769 83.3152 3.84584 82.7627 4.37738C82.1555 4.96141 81.5366 5.55717 80.9049 6.16613C80.2733 6.77526 79.6355 7.35929 78.9916 7.91691C78.3472 8.47553 77.6662 8.94484 76.9482 9.32533C76.5768 9.52887 76.143 9.65532 75.6478 9.70616C75.152 9.75717 74.6632 9.7887 74.1803 9.80124C73.6974 9.81429 73.2329 9.83343 72.7871 9.85836C72.7374 9.861 72.6895 9.86463 72.6422 9.86843C72.6422 9.86826 72.6422 9.86826 72.6421 9.86826L66.954 10.1628C66.7804 10.1628 66.3782 10.1758 65.7465 10.2009C65.1149 10.2265 64.359 10.2644 63.4802 10.3151C62.6007 10.3661 61.6598 10.4232 60.6566 10.4863C59.6535 10.5499 58.7061 10.6194 57.8144 10.6956C57.3185 10.7468 56.8235 10.7783 56.3282 10.7909C55.8325 10.8039 55.3866 10.8231 54.9906 10.8481C54.5942 10.8734 54.2785 10.9239 54.0434 11.0002C53.8077 11.0763 53.7149 11.1903 53.7646 11.3427C53.7149 11.4698 53.7704 11.571 53.9319 11.6473C54.0928 11.7232 54.3093 11.7935 54.582 11.8566C54.8543 11.9201 55.158 11.9707 55.4923 12.0088C55.8264 12.0468 56.1544 12.0789 56.4764 12.1039C56.4767 12.1039 56.4771 12.1039 56.4772 12.1039C56.7496 12.0535 57.1208 12.0028 57.5914 11.9515C58.0616 11.9012 58.5203 11.8506 58.9661 11.7995C59.4862 11.749 60.0307 11.6983 60.6008 11.6473L62.5901 11.3605C62.8006 11.3303 63.0123 11.308 63.2246 11.2975C63.5125 11.2833 63.9257 11.2476 64.4647 11.1903C65.183 11.1144 65.9695 11.0322 66.824 10.9431C67.6784 10.8544 68.5267 10.7717 69.3689 10.6956C70.2108 10.6194 72.3905 10.4568 72.9355 10.4568C72.9355 10.4566 72.9354 10.4564 72.9354 10.4564C73.0986 10.4635 73.2714 10.4673 73.4557 10.4673C73.8022 10.4673 74.1306 10.4739 74.4405 10.4863C74.7498 10.4993 75.0034 10.5375 75.202 10.6004C75.4019 10.6654 75.4536 10.9315 75.2935 11.0703C73.7151 12.44 72.1366 13.7673 70.558 15.0538C68.9232 16.3861 67.2885 17.661 65.6538 18.8792C64.7369 19.5392 63.8453 20.1797 62.9786 20.8013C62.1112 21.4235 61.2445 22.0133 60.3778 22.5713C59.8328 22.9268 59.2321 23.2755 58.5759 23.6178C57.9195 23.9605 57.2507 24.2905 56.5697 24.6075L52.7617 26.3013C52.7616 26.3013 52.7614 26.3013 52.7614 26.3013C46.0148 28.6916 47.5169 26.5243 47.5169 26.5243L53.3353 18.5175C53.8927 17.6931 54.1714 17.1032 54.1714 16.7476C54.1714 16.5952 54.1213 16.443 54.0226 16.2908C53.9234 16.1386 53.8056 15.9929 53.6698 15.8532C53.5334 15.7141 53.4155 15.5676 53.3167 15.4154C53.2175 15.2631 53.1681 15.1109 53.1681 14.9585C53.1681 14.6294 53.2545 14.3751 53.4282 14.1973C53.6012 14.0201 53.7378 13.8169 53.8369 13.5884C53.8863 13.4616 53.8492 13.265 53.7254 12.9986C53.6317 12.7975 53.5583 12.6169 53.445 12.5147C52.3277 11.5071 48.8592 15.18 48.8592 15.18C38.0864 25.0144 36.2241 25.8066 36.2241 25.8066C33.5368 27.3936 32.0437 27.7789 31.2556 27.8159C30.7162 27.8413 30.2099 27.4915 30.0773 26.9562C30.0767 26.9535 30.076 26.9509 30.0754 26.9486C30.0134 26.695 30.0197 26.3776 30.0939 25.9967C30.1683 25.6162 30.304 25.1535 30.5026 24.6075C30.7006 24.0621 30.9729 23.3834 31.32 22.5713C31.5179 22.1657 31.7409 21.7404 31.9887 21.2961C32.2361 20.8525 32.4839 20.4207 32.732 20.002C32.9792 19.5833 33.2335 19.1968 33.4935 18.8411C33.4961 18.8374 33.4987 18.834 33.5013 18.8303C33.9001 18.2871 34.372 17.8047 34.8961 17.3871L46.4227 8.20249C46.8228 7.83669 47.1805 7.42747 47.4961 6.97467C47.5751 6.86093 47.56 6.70361 47.4645 6.60391C47.2657 6.39641 47.0981 6.21251 46.9616 6.0519C46.7878 5.84935 46.565 5.8236 46.2928 5.97597C45.8962 6.20443 45.091 6.72474 43.8777 7.53642C42.6639 8.34891 41.1901 9.33837 39.4567 10.5053C38.8623 10.9115 38.2863 11.3302 37.729 11.7613C37.1716 12.1932 36.5337 12.6369 35.8155 13.0935L32.8248 14.9777L29.6853 16.8618C28.2734 17.7503 26.8802 18.6509 25.5058 19.5643C24.1308 20.4778 22.7499 21.3664 21.363 22.2286C20.8429 22.5587 20.3225 22.8757 19.8026 23.1802C19.2822 23.4848 18.7622 23.7892 18.2422 24.0936L15.5115 25.54C15.2013 25.6923 14.8985 25.8445 14.601 25.9967C13.8824 26.3523 13.1951 26.663 12.5392 26.9292C11.8826 27.1958 11.2324 27.4433 10.5887 27.6716C9.52335 28.0272 8.5492 28.2976 7.67198 28.509C4.76445 29.2096 3.99386 28.8134 3.99386 28.8134C3.73383 28.7122 3.5109 28.5031 3.32519 28.1853C3.13939 27.8685 3.04649 27.3421 3.04649 26.6057C3.04649 26.0225 3.15155 25.42 3.36236 24.7978C3.36236 24.7978 4.13471 22.4777 5.55432 20.668C5.55432 20.668 8.32773 17.344 12.9292 13.7026C13.7679 13.0389 14.632 12.3959 15.5115 11.7613C16.3904 11.1275 17.2761 10.5053 18.1677 9.89633C19.6783 8.9067 21.1773 7.96809 22.6633 7.07949C24.1494 6.19172 25.5672 5.39903 26.9175 4.70076C28.2671 4.00332 29.5052 3.43233 30.6327 2.98811C30.6327 2.98811 35.2697 0.759434 39.8653 0.837513C39.8653 0.837513 43.7181 0.986576 42.8374 3.82537C42.6861 4.31317 42.4224 4.73279 42.1873 5.13854C41.9516 5.54479 41.7908 5.87477 41.7043 6.12816C41.624 6.36224 41.7708 6.47746 42.1435 6.47416C42.2078 6.47367 42.2704 6.44824 42.32 6.40615C42.9289 5.8888 43.4298 5.3013 43.8222 4.64364C44.2309 3.95858 44.4351 3.31166 44.4351 2.70253C44.4351 2.14458 44.2924 1.68798 44.0079 1.33224C43.7227 0.977333 43.3264 0.704132 42.819 0.513802C42.3109 0.323635 41.7229 0.190254 41.0541 0.114155C40.3855 0.0380554 39.6666 9.15527e-05 38.8992 9.15527e-05C37.7105 9.15527e-05 36.4285 0.0893936 35.054 0.266518C33.6792 0.444305 32.1746 0.76125 30.5399 1.21801C30.2919 1.26902 30.0441 1.33224 29.7966 1.40834C29.5518 1.48345 29.2952 1.55873 29.0264 1.634C29.0202 1.63598 29.0141 1.63779 29.008 1.63977C29.008 1.63977 27.5232 2.17016 27.5104 2.17363L25.8688 2.77384C25.8618 2.77681 23.2601 3.90328 22.0132 4.62466C20.762 5.34785 19.5052 6.0519 18.2422 6.73712C17.502 7.11613 16.7803 7.55837 16.0771 8.06317C16.0714 8.06697 16.0655 8.07076 16.0598 8.07456C16.0598 8.07456 5.65345 14.9072 0.708888 23.4409C0.706997 23.4448 0.308877 24.4894 0.18573 25.0452C0.0615109 25.6037 0 26.073 0 26.4537C0 26.7331 0.0742416 27.1263 0.222788 27.6335C0.371397 28.1412 0.717963 28.6744 1.26312 29.232C1.85749 29.8412 2.47058 30.2152 3.1022 30.3549C3.73383 30.4942 4.37136 30.5642 5.01553 30.5642C5.01553 30.5642 7.67159 31.2301 22.2362 23.2373L26.3973 21.0296C26.8802 20.7632 27.264 20.5413 27.549 20.3636C27.8336 20.1863 28.0441 20.059 28.1805 19.9829C28.245 19.9469 28.2997 19.9165 28.3447 19.8919C28.4446 19.8373 28.5607 19.8117 28.6696 19.8437C28.785 19.8776 28.8513 19.9619 28.8681 20.097C28.8923 20.3007 28.8494 20.5729 28.7379 20.9154C28.6275 21.2545 28.4628 21.6435 28.2432 22.0818C28.2393 22.0906 28.2353 22.0998 28.2314 22.1087L27.0165 25.3714C27.0132 25.3825 27.0096 25.394 27.0062 25.4049C26.8842 25.9055 26.8055 26.3308 26.7687 26.682C26.7315 27.0377 26.7374 27.367 26.7874 27.6716C26.7874 27.6716 26.7323 29.2185 28.8308 30.0313C28.8308 30.0313 30.0188 30.3283 31.7103 29.5175C31.7103 29.5175 36.0432 28.2389 50.549 15.758C50.8723 15.4797 51.1862 15.4029 51.3847 15.3773C51.3847 15.3773 51.7605 15.3209 52.0786 15.7253C52.1896 15.8664 52.1988 16.0655 52.1149 16.2251C51.7877 16.8499 50.8766 18.5363 50.1587 19.3739C49.2671 20.4147 48.3754 21.4101 47.4837 22.3618C46.5921 23.3133 45.8054 24.246 45.1245 25.1596C44.5108 25.982 44.1334 26.8254 43.9923 27.6889C43.9923 27.6889 43.6909 29.5236 46.6294 29.3083C46.9256 29.2867 47.3038 29.2702 47.7625 29.1942C48.2205 29.118 48.7097 29.0037 49.2298 28.8515C49.75 28.6992 50.2823 28.5221 50.8276 28.3185L54.9719 26.5486C55.43 26.3583 56.0924 26.0098 56.9598 25.502C57.4299 25.223 57.8822 24.9568 58.316 24.7027C58.6902 24.4837 59.0421 24.2737 59.3704 24.0733C59.4811 24.0056 59.6305 24.0142 59.7136 24.115C59.7697 24.1831 59.7857 24.2722 59.7649 24.379C59.7277 24.5697 59.6221 24.7788 59.449 25.0071C59.2755 25.2356 59.0646 25.4771 58.8175 25.7303C58.5697 25.9844 58.3346 26.2254 58.1116 26.4537C57.6157 26.9357 57.0713 27.418 56.4769 27.8999C55.8825 28.3822 55.3185 28.8705 54.7862 29.3653C54.2533 29.8601 53.8077 30.3484 53.449 30.8306C53.0894 31.3125 52.9102 31.7824 52.9102 32.2389C52.9102 32.5182 52.9716 32.829 53.0959 33.1717C53.2195 33.5141 53.3931 33.8312 53.616 34.1232C53.8392 34.4146 54.1112 34.6561 54.4335 34.8462C54.4335 34.8462 56.9613 36.0549 62.7929 32.0679L69.962 27.3827Z" fill="#353535"/>
</g>
<defs>
<clipPath id="clip0_1_105">
<rect width="178" height="56" fill="white"/>
</clipPath>
</defs>
</svg>
