<svg width="34" height="22" viewBox="0 0 34 22" fill="none" xmlns="http://www.w3.org/2000/svg">
<path d="M0 1.11085C0 0.829055 0.111942 0.558804 0.311199 0.359546C0.510456 0.160289 0.780707 0.0483475 1.0625 0.0483475H32.9375C33.2193 0.0483475 33.4895 0.160289 33.6888 0.359546C33.8881 0.558804 34 0.829055 34 1.11085C34 1.39264 33.8881 1.66289 33.6888 1.86215C33.4895 2.06141 33.2193 2.17335 32.9375 2.17335H1.0625C0.780707 2.17335 0.510456 2.06141 0.311199 1.86215C0.111942 1.66289 0 1.39264 0 1.11085ZM32.9375 9.9375H1.0625C0.780707 9.9375 0.510456 10.0494 0.311199 10.2487C0.111942 10.448 0 10.7182 0 11C0 11.2818 0.111942 11.552 0.311199 11.7513C0.510456 11.9506 0.780707 12.0625 1.0625 12.0625H32.9375C33.2193 12.0625 33.4895 11.9506 33.6888 11.7513C33.8881 11.552 34 11.2818 34 11C34 10.7182 33.8881 10.448 33.6888 10.2487C33.4895 10.0494 33.2193 9.9375 32.9375 9.9375ZM17 19.8267H1.0625C0.780707 19.8267 0.510456 19.9386 0.311199 20.1379C0.111942 20.3371 0 20.6074 0 20.8892C0 21.1709 0.111942 21.4412 0.311199 21.6405C0.510456 21.8397 0.780707 21.9517 1.0625 21.9517H17C17.2818 21.9517 17.552 21.8397 17.7513 21.6405C17.9506 21.4412 18.0625 21.1709 18.0625 20.8892C18.0625 20.6074 17.9506 20.3371 17.7513 20.1379C17.552 19.9386 17.2818 19.8267 17 19.8267Z" fill="#BB3024"/>
</svg>
